#∂ is the symbol for partial derivative.
mtllib minecraftMats.mtl
v -2 0 -2
v -2 0 -1
v -2 1 -2
v -2 1 -1
v -1 0 -2
v -1 0 -1
v -1 1 -2
v -1 1 -1
v -1 0 -2
v -1 0 -1
v -1 1 -2
v -1 1 -1
v 0 0 -2
v 0 0 -1
v 0 1 -2
v 0 1 -1
v 0 0 -2
v 0 0 -1
v 0 1 -2
v 0 1 -1
v 1 0 -2
v 1 0 -1
v 1 1 -2
v 1 1 -1
v 1 0 -2
v 1 0 -1
v 1 1 -2
v 1 1 -1
v 2 0 -2
v 2 0 -1
v 2 1 -2
v 2 1 -1
v 2 0 -2
v 2 0 -1
v 2 1 -2
v 2 1 -1
v 3 0 -2
v 3 0 -1
v 3 1 -2
v 3 1 -1
v -2 0 -1
v -2 0 0
v -2 1 -1
v -2 1 0
v -1 0 -1
v -1 0 0
v -1 1 -1
v -1 1 0
v -1 0 -1
v -1 0 0
v -1 1 -1
v -1 1 0
v 0 0 -1
v 0 0 0
v 0 1 -1
v 0 1 0
v 0 0 -1
v 0 0 0
v 0 1 -1
v 0 1 0
v 1 0 -1
v 1 0 0
v 1 1 -1
v 1 1 0
v 1 0 -1
v 1 0 0
v 1 1 -1
v 1 1 0
v 2 0 -1
v 2 0 0
v 2 1 -1
v 2 1 0
v 2 0 -1
v 2 0 0
v 2 1 -1
v 2 1 0
v 3 0 -1
v 3 0 0
v 3 1 -1
v 3 1 0
v -2 0 0
v -2 0 1
v -2 1 0
v -2 1 1
v -1 0 0
v -1 0 1
v -1 1 0
v -1 1 1
v -1 0 0
v -1 0 1
v -1 1 0
v -1 1 1
v 0 0 0
v 0 0 1
v 0 1 0
v 0 1 1
v 0 0 0
v 0 0 1
v 0 1 0
v 0 1 1
v 1 0 0
v 1 0 1
v 1 1 0
v 1 1 1
v 1 0 0
v 1 0 1
v 1 1 0
v 1 1 1
v 2 0 0
v 2 0 1
v 2 1 0
v 2 1 1
v 2 0 0
v 2 0 1
v 2 1 0
v 2 1 1
v 3 0 0
v 3 0 1
v 3 1 0
v 3 1 1
v -2 0 1
v -2 0 2
v -2 1 1
v -2 1 2
v -1 0 1
v -1 0 2
v -1 1 1
v -1 1 2
v -1 0 1
v -1 0 2
v -1 1 1
v -1 1 2
v 0 0 1
v 0 0 2
v 0 1 1
v 0 1 2
v 0 0 1
v 0 0 2
v 0 1 1
v 0 1 2
v 1 0 1
v 1 0 2
v 1 1 1
v 1 1 2
v 1 0 1
v 1 0 2
v 1 1 1
v 1 1 2
v 2 0 1
v 2 0 2
v 2 1 1
v 2 1 2
v 2 0 1
v 2 0 2
v 2 1 1
v 2 1 2
v 3 0 1
v 3 0 2
v 3 1 1
v 3 1 2
v -2 0 2
v -2 0 3
v -2 1 2
v -2 1 3
v -1 0 2
v -1 0 3
v -1 1 2
v -1 1 3
v -1 0 2
v -1 0 3
v -1 1 2
v -1 1 3
v 0 0 2
v 0 0 3
v 0 1 2
v 0 1 3
v 0 0 2
v 0 0 3
v 0 1 2
v 0 1 3
v 1 0 2
v 1 0 3
v 1 1 2
v 1 1 3
v 1 0 2
v 1 0 3
v 1 1 2
v 1 1 3
v 2 0 2
v 2 0 3
v 2 1 2
v 2 1 3
v 2 0 2
v 2 0 3
v 2 1 2
v 2 1 3
v 3 0 2
v 3 0 3
v 3 1 2
v 3 1 3
v -1 1 -1
v -1 1 0
v -1 2 -1
v -1 2 0
v 0 1 -1
v 0 1 0
v 0 2 -1
v 0 2 0
v -1 1 0
v -1 1 1
v -1 2 0
v -1 2 1
v 0 1 0
v 0 1 1
v 0 2 0
v 0 2 1
v -1 1 1
v -1 1 2
v -1 2 1
v -1 2 2
v 0 1 1
v 0 1 2
v 0 2 1
v 0 2 2
v 0 1 1
v 0 1 2
v 0 2 1
v 0 2 2
v 1 1 1
v 1 1 2
v 1 2 1
v 1 2 2
v 1 1 -1
v 1 1 0
v 1 2 -1
v 1 2 0
v 2 1 -1
v 2 1 0
v 2 2 -1
v 2 2 0
v 1 1 0
v 1 1 1
v 1 2 0
v 1 2 1
v 2 1 0
v 2 1 1
v 2 2 0
v 2 2 1
v 1 1 1
v 1 1 2
v 1 2 1
v 1 2 2
v 2 1 1
v 2 1 2
v 2 2 1
v 2 2 2
v -1 2 -1
v -1 2 0
v -1 3 -1
v -1 3 0
v 0 2 -1
v 0 2 0
v 0 3 -1
v 0 3 0
v -1 2 0
v -1 2 1
v -1 3 0
v -1 3 1
v 0 2 0
v 0 2 1
v 0 3 0
v 0 3 1
v -1 2 1
v -1 2 2
v -1 3 1
v -1 3 2
v 0 2 1
v 0 2 2
v 0 3 1
v 0 3 2
v 0 2 1
v 0 2 2
v 0 3 1
v 0 3 2
v 1 2 1
v 1 2 2
v 1 3 1
v 1 3 2
v 1 2 -1
v 1 2 0
v 1 3 -1
v 1 3 0
v 2 2 -1
v 2 2 0
v 2 3 -1
v 2 3 0
v 1 2 0
v 1 2 1
v 1 3 0
v 1 3 1
v 2 2 0
v 2 2 1
v 2 3 0
v 2 3 1
v 1 2 1
v 1 2 2
v 1 3 1
v 1 3 2
v 2 2 1
v 2 2 2
v 2 3 1
v 2 3 2
v -1 3 -1
v -1 3 0
v -1 4 -1
v -1 4 0
v 0 3 -1
v 0 3 0
v 0 4 -1
v 0 4 0
v -1 3 0
v -1 3 1
v -1 4 0
v -1 4 1
v 0 3 0
v 0 3 1
v 0 4 0
v 0 4 1
v -1 3 1
v -1 3 2
v -1 4 1
v -1 4 2
v 0 3 1
v 0 3 2
v 0 4 1
v 0 4 2
v 0 3 1
v 0 3 2
v 0 4 1
v 0 4 2
v 1 3 1
v 1 3 2
v 1 4 1
v 1 4 2
v 1 3 -1
v 1 3 0
v 1 4 -1
v 1 4 0
v 2 3 -1
v 2 3 0
v 2 4 -1
v 2 4 0
v 1 3 0
v 1 3 1
v 1 4 0
v 1 4 1
v 2 3 0
v 2 3 1
v 2 4 0
v 2 4 1
v 1 3 1
v 1 3 2
v 1 4 1
v 1 4 2
v 2 3 1
v 2 3 2
v 2 4 1
v 2 4 2
v -1 4 -1
v -1 4 0
v -1 5 -1
v -1 5 0
v 0 4 -1
v 0 4 0
v 0 5 -1
v 0 5 0
v -1 4 0
v -1 4 1
v -1 5 0
v -1 5 1
v 0 4 0
v 0 4 1
v 0 5 0
v 0 5 1
v -1 4 1
v -1 4 2
v -1 5 1
v -1 5 2
v 0 4 1
v 0 4 2
v 0 5 1
v 0 5 2
v 0 4 -1
v 0 4 0
v 0 5 -1
v 0 5 0
v 1 4 -1
v 1 4 0
v 1 5 -1
v 1 5 0
v 0 4 0
v 0 4 1
v 0 5 0
v 0 5 1
v 1 4 0
v 1 4 1
v 1 5 0
v 1 5 1
v 0 4 1
v 0 4 2
v 0 5 1
v 0 5 2
v 1 4 1
v 1 4 2
v 1 5 1
v 1 5 2
v 1 4 -1
v 1 4 0
v 1 5 -1
v 1 5 0
v 2 4 -1
v 2 4 0
v 2 5 -1
v 2 5 0
v 1 4 0
v 1 4 1
v 1 5 0
v 1 5 1
v 2 4 0
v 2 4 1
v 2 5 0
v 2 5 1
v 1 4 1
v 1 4 2
v 1 5 1
v 1 5 2
v 2 4 1
v 2 4 2
v 2 5 1
v 2 5 2
v 0 3 -1
v 0 3 0
v 0 4 -1
v 0 4 0
v 1 3 -1
v 1 3 0
v 1 4 -1
v 1 4 0
vn 0.0000 0.0000 1.0000
vn 0.0000 0.0000 -1.0000
vn 0.0000 1.0000 0.0000
vn 0.0000 -1.0000 0.0000
vn 1.0000 0.0000 0.0000
vn -1.0000 0.0000 0.0000
vt 0.0000 0.0000
vt 1.0000 0.0000
vt 0.0000 1.0000
vt 1.0000 1.0000
usemtl Dirt
f 1/1/2 7/4/2 5/2/2
f 1/1/2 3/3/2 7/4/2
f 1/2/6 4/3/6 3/4/6
f 1/2/6 2/1/6 4/3/6
f 3/2/3 8/3/3 7/1/3
f 3/2/3 4/4/3 8/3/3
f 1/4/4 5/3/4 6/1/4
f 1/4/4 6/1/4 2/2/4
f 9/1/2 15/4/2 13/2/2
f 9/1/2 11/3/2 15/4/2
f 11/2/3 16/3/3 15/1/3
f 11/2/3 12/4/3 16/3/3
f 9/4/4 13/3/4 14/1/4
f 9/4/4 14/1/4 10/2/4
f 17/1/2 23/4/2 21/2/2
f 17/1/2 19/3/2 23/4/2
f 19/2/3 24/3/3 23/1/3
f 19/2/3 20/4/3 24/3/3
f 17/4/4 21/3/4 22/1/4
f 17/4/4 22/1/4 18/2/4
f 25/1/2 31/4/2 29/2/2
f 25/1/2 27/3/2 31/4/2
f 27/2/3 32/3/3 31/1/3
f 27/2/3 28/4/3 32/3/3
f 25/4/4 29/3/4 30/1/4
f 25/4/4 30/1/4 26/2/4
f 33/1/2 39/4/2 37/2/2
f 33/1/2 35/3/2 39/4/2
f 35/2/3 40/3/3 39/1/3
f 35/2/3 36/4/3 40/3/3
f 37/1/5 39/3/5 40/4/5
f 37/1/5 40/4/5 38/2/5
f 33/4/4 37/3/4 38/1/4
f 33/4/4 38/1/4 34/2/4
f 41/2/6 44/3/6 43/4/6
f 41/2/6 42/1/6 44/3/6
f 43/2/3 48/3/3 47/1/3
f 43/2/3 44/4/3 48/3/3
f 41/4/4 45/3/4 46/1/4
f 41/4/4 46/1/4 42/2/4
f 49/4/4 53/3/4 54/1/4
f 49/4/4 54/1/4 50/2/4
f 59/2/3 64/3/3 63/1/3
f 59/2/3 60/4/3 64/3/3
f 57/4/4 61/3/4 62/1/4
f 57/4/4 62/1/4 58/2/4
f 65/4/4 69/3/4 70/1/4
f 65/4/4 70/1/4 66/2/4
f 75/2/3 80/3/3 79/1/3
f 75/2/3 76/4/3 80/3/3
f 77/1/5 79/3/5 80/4/5
f 77/1/5 80/4/5 78/2/5
f 73/4/4 77/3/4 78/1/4
f 73/4/4 78/1/4 74/2/4
f 81/2/6 84/3/6 83/4/6
f 81/2/6 82/1/6 84/3/6
f 83/2/3 88/3/3 87/1/3
f 83/2/3 84/4/3 88/3/3
f 81/4/4 85/3/4 86/1/4
f 81/4/4 86/1/4 82/2/4
f 89/4/4 93/3/4 94/1/4
f 89/4/4 94/1/4 90/2/4
f 99/2/3 104/3/3 103/1/3
f 99/2/3 100/4/3 104/3/3
f 97/4/4 101/3/4 102/1/4
f 97/4/4 102/1/4 98/2/4
f 105/4/4 109/3/4 110/1/4
f 105/4/4 110/1/4 106/2/4
f 115/2/3 120/3/3 119/1/3
f 115/2/3 116/4/3 120/3/3
f 117/1/5 119/3/5 120/4/5
f 117/1/5 120/4/5 118/2/5
f 113/4/4 117/3/4 118/1/4
f 113/4/4 118/1/4 114/2/4
f 121/2/6 124/3/6 123/4/6
f 121/2/6 122/1/6 124/3/6
f 123/2/3 128/3/3 127/1/3
f 123/2/3 124/4/3 128/3/3
f 121/4/4 125/3/4 126/1/4
f 121/4/4 126/1/4 122/2/4
f 129/4/4 133/3/4 134/1/4
f 129/4/4 134/1/4 130/2/4
f 137/4/4 141/3/4 142/1/4
f 137/4/4 142/1/4 138/2/4
f 145/4/4 149/3/4 150/1/4
f 145/4/4 150/1/4 146/2/4
f 155/2/3 160/3/3 159/1/3
f 155/2/3 156/4/3 160/3/3
f 157/1/5 159/3/5 160/4/5
f 157/1/5 160/4/5 158/2/5
f 153/4/4 157/3/4 158/1/4
f 153/4/4 158/1/4 154/2/4
f 161/2/6 164/3/6 163/4/6
f 161/2/6 162/1/6 164/3/6
f 163/2/3 168/3/3 167/1/3
f 163/2/3 164/4/3 168/3/3
f 161/4/4 165/3/4 166/1/4
f 161/4/4 166/1/4 162/2/4
f 162/1/1 166/2/1 168/4/1
f 162/1/1 168/4/1 164/3/1
f 171/2/3 176/3/3 175/1/3
f 171/2/3 172/4/3 176/3/3
f 169/4/4 173/3/4 174/1/4
f 169/4/4 174/1/4 170/2/4
f 170/1/1 174/2/1 176/4/1
f 170/1/1 176/4/1 172/3/1
f 179/2/3 184/3/3 183/1/3
f 179/2/3 180/4/3 184/3/3
f 177/4/4 181/3/4 182/1/4
f 177/4/4 182/1/4 178/2/4
f 178/1/1 182/2/1 184/4/1
f 178/1/1 184/4/1 180/3/1
f 187/2/3 192/3/3 191/1/3
f 187/2/3 188/4/3 192/3/3
f 185/4/4 189/3/4 190/1/4
f 185/4/4 190/1/4 186/2/4
f 186/1/1 190/2/1 192/4/1
f 186/1/1 192/4/1 188/3/1
f 195/2/3 200/3/3 199/1/3
f 195/2/3 196/4/3 200/3/3
f 197/1/5 199/3/5 200/4/5
f 197/1/5 200/4/5 198/2/5
f 193/4/4 197/3/4 198/1/4
f 193/4/4 198/1/4 194/2/4
f 194/1/1 198/2/1 200/4/1
f 194/1/1 200/4/1 196/3/1
usemtl Stone
f 201/1/2 207/4/2 205/2/2
f 201/1/2 203/3/2 207/4/2
f 201/2/6 204/3/6 203/4/6
f 201/2/6 202/1/6 204/3/6
f 205/1/5 207/3/5 208/4/5
f 205/1/5 208/4/5 206/2/5
f 209/2/6 212/3/6 211/4/6
f 209/2/6 210/1/6 212/3/6
f 213/1/5 215/3/5 216/4/5
f 213/1/5 216/4/5 214/2/5
f 217/2/6 220/3/6 219/4/6
f 217/2/6 218/1/6 220/3/6
f 218/1/1 222/2/1 224/4/1
f 218/1/1 224/4/1 220/3/1
f 225/1/2 231/4/2 229/2/2
f 225/1/2 227/3/2 231/4/2
f 226/1/1 230/2/1 232/4/1
f 226/1/1 232/4/1 228/3/1
f 233/1/2 239/4/2 237/2/2
f 233/1/2 235/3/2 239/4/2
f 233/2/6 236/3/6 235/4/6
f 233/2/6 234/1/6 236/3/6
f 237/1/5 239/3/5 240/4/5
f 237/1/5 240/4/5 238/2/5
f 241/2/6 244/3/6 243/4/6
f 241/2/6 242/1/6 244/3/6
f 245/1/5 247/3/5 248/4/5
f 245/1/5 248/4/5 246/2/5
f 253/1/5 255/3/5 256/4/5
f 253/1/5 256/4/5 254/2/5
f 250/1/1 254/2/1 256/4/1
f 250/1/1 256/4/1 252/3/1
f 257/1/2 263/4/2 261/2/2
f 257/1/2 259/3/2 263/4/2
f 257/2/6 260/3/6 259/4/6
f 257/2/6 258/1/6 260/3/6
f 261/1/5 263/3/5 264/4/5
f 261/1/5 264/4/5 262/2/5
f 265/2/6 268/3/6 267/4/6
f 265/2/6 266/1/6 268/3/6
f 269/1/5 271/3/5 272/4/5
f 269/1/5 272/4/5 270/2/5
f 273/2/6 276/3/6 275/4/6
f 273/2/6 274/1/6 276/3/6
f 274/1/1 278/2/1 280/4/1
f 274/1/1 280/4/1 276/3/1
f 281/1/2 287/4/2 285/2/2
f 281/1/2 283/3/2 287/4/2
f 282/1/1 286/2/1 288/4/1
f 282/1/1 288/4/1 284/3/1
f 289/1/2 295/4/2 293/2/2
f 289/1/2 291/3/2 295/4/2
f 289/2/6 292/3/6 291/4/6
f 289/2/6 290/1/6 292/3/6
f 293/1/5 295/3/5 296/4/5
f 293/1/5 296/4/5 294/2/5
f 297/2/6 300/3/6 299/4/6
f 297/2/6 298/1/6 300/3/6
f 301/1/5 303/3/5 304/4/5
f 301/1/5 304/4/5 302/2/5
f 309/1/5 311/3/5 312/4/5
f 309/1/5 312/4/5 310/2/5
f 306/1/1 310/2/1 312/4/1
f 306/1/1 312/4/1 308/3/1
f 313/1/2 319/4/2 317/2/2
f 313/1/2 315/3/2 319/4/2
f 313/2/6 316/3/6 315/4/6
f 313/2/6 314/1/6 316/3/6
f 317/1/5 319/3/5 320/4/5
f 317/1/5 320/4/5 318/2/5
f 321/2/6 324/3/6 323/4/6
f 321/2/6 322/1/6 324/3/6
f 325/1/5 327/3/5 328/4/5
f 325/1/5 328/4/5 326/2/5
f 329/2/6 332/3/6 331/4/6
f 329/2/6 330/1/6 332/3/6
f 330/1/1 334/2/1 336/4/1
f 330/1/1 336/4/1 332/3/1
f 337/1/2 343/4/2 341/2/2
f 337/1/2 339/3/2 343/4/2
f 338/1/1 342/2/1 344/4/1
f 338/1/1 344/4/1 340/3/1
f 345/1/2 351/4/2 349/2/2
f 345/1/2 347/3/2 351/4/2
f 345/2/6 348/3/6 347/4/6
f 345/2/6 346/1/6 348/3/6
f 349/1/5 351/3/5 352/4/5
f 349/1/5 352/4/5 350/2/5
f 353/2/6 356/3/6 355/4/6
f 353/2/6 354/1/6 356/3/6
f 357/1/5 359/3/5 360/4/5
f 357/1/5 360/4/5 358/2/5
f 365/1/5 367/3/5 368/4/5
f 365/1/5 368/4/5 366/2/5
f 362/1/1 366/2/1 368/4/1
f 362/1/1 368/4/1 364/3/1
usemtl Wood
f 369/1/2 375/4/2 373/2/2
f 369/1/2 371/3/2 375/4/2
f 369/2/6 372/3/6 371/4/6
f 369/2/6 370/1/6 372/3/6
f 371/2/3 376/3/3 375/1/3
f 371/2/3 372/4/3 376/3/3
f 377/2/6 380/3/6 379/4/6
f 377/2/6 378/1/6 380/3/6
f 379/2/3 384/3/3 383/1/3
f 379/2/3 380/4/3 384/3/3
f 385/2/6 388/3/6 387/4/6
f 385/2/6 386/1/6 388/3/6
f 387/2/3 392/3/3 391/1/3
f 387/2/3 388/4/3 392/3/3
f 386/1/1 390/2/1 392/4/1
f 386/1/1 392/4/1 388/3/1
f 393/1/2 399/4/2 397/2/2
f 393/1/2 395/3/2 399/4/2
f 395/2/3 400/3/3 399/1/3
f 395/2/3 396/4/3 400/3/3
f 393/4/4 397/3/4 398/1/4
f 393/4/4 398/1/4 394/2/4
f 403/2/3 408/3/3 407/1/3
f 403/2/3 404/4/3 408/3/3
f 401/4/4 405/3/4 406/1/4
f 401/4/4 406/1/4 402/2/4
f 411/2/3 416/3/3 415/1/3
f 411/2/3 412/4/3 416/3/3
f 410/1/1 414/2/1 416/4/1
f 410/1/1 416/4/1 412/3/1
f 417/1/2 423/4/2 421/2/2
f 417/1/2 419/3/2 423/4/2
f 419/2/3 424/3/3 423/1/3
f 419/2/3 420/4/3 424/3/3
f 421/1/5 423/3/5 424/4/5
f 421/1/5 424/4/5 422/2/5
f 427/2/3 432/3/3 431/1/3
f 427/2/3 428/4/3 432/3/3
f 429/1/5 431/3/5 432/4/5
f 429/1/5 432/4/5 430/2/5
f 435/2/3 440/3/3 439/1/3
f 435/2/3 436/4/3 440/3/3
f 437/1/5 439/3/5 440/4/5
f 437/1/5 440/4/5 438/2/5
f 434/1/1 438/2/1 440/4/1
f 434/1/1 440/4/1 436/3/1
usemtl Glass
f 441/1/2 447/4/2 445/2/2
f 441/1/2 443/3/2 447/4/2
f 441/2/6 444/3/6 443/4/6
f 441/2/6 442/1/6 444/3/6
f 443/2/3 448/3/3 447/1/3
f 443/2/3 444/4/3 448/3/3
f 445/1/5 447/3/5 448/4/5
f 445/1/5 448/4/5 446/2/5
f 441/4/4 445/3/4 446/1/4
f 441/4/4 446/1/4 442/2/4
f 442/1/1 446/2/1 448/4/1
f 442/1/1 448/4/1 444/3/1
